# xmcd
#
# Track frame offsets: 
#        300
#        18713
#        30592
#        46117
#        64614
#        84668
#        99970
#        117004
#        133225
#        151094
#        172063
#        190658
#        203422
#        218105
#        230393
#        250108
#        267348
#        284970
#        299470
#        322526
#
# Disc length: 4582 seconds
#
# Revision: 0
# Processed by: cddbd v1.5.1PL2 Copyright (c) Steve Scherf et al.
# Submitted via: ExactAudioCopy v0.95b4
#
DISCID=1711e214
DTITLE=Various Artist - Шоферской 13
DYEAR=2003
DGENRE=Шансон
TTITLE0=01-И. Слуцкий-Слово крепкое
TTITLE1=02-М. Круг-Моим друзьям
TTITLE2=03-К. Огонёк-Браслетик
TTITLE3=04-Жека-Колея
TTITLE4=05-Трофим-Я скучаю по тебе
TTITLE5=06-Т. Тишинская-Продавщица штучного товара
TTITLE6=07-Ю. Маковей-Татарин
TTITLE7=08-М. Шуфутинский-Пойду однажды по Руси
TTITLE8=09-И. Круг, Телеш-Дорога
TTITLE9=10-Г. Заречный-Девушка за рулём
TTITLE10=11-Е. Чужой-Брат
TTITLE11=12-В. Цыганова-Шофера
TTITLE12=13-гр. "Небо"-Копеечка
TTITLE13=14-В. Королёв-Рая
TTITLE14=15-Г. Кричевский-Дальнобойная
TTITLE15=16-Б. Драгилев-В рейсе
TTITLE16=17-гр. "Воровайки"-Мачо
TTITLE17=18-В. Калина-Догони, мусорок
TTITLE18=19-А. Полотно-Лесовоз
TTITLE19=20-В. Черняков-Поёт магнитофон
EXTD=
EXTT0=
EXTT1=
EXTT2=
EXTT3=
EXTT4=
EXTT5=
EXTT6=
EXTT7=
EXTT8=
EXTT9=
EXTT10=
EXTT11=
EXTT12=
EXTT13=
EXTT14=
EXTT15=
EXTT16=
EXTT17=
EXTT18=
EXTT19=
PLAYORDER=
